<svg width="27" height="30" viewBox="0 0 27 30" fill="none" xmlns="http://www.w3.org/2000/svg">
<path d="M25.5 21.4598V8.54017C25.499 8.35355 25.4512 8.1705 25.3612 8.00947C25.2712 7.84843 25.1423 7.71511 24.9875 7.62296L13.9875 1.13693C13.8393 1.04722 13.6711 1 13.5 1C13.3289 1 13.1607 1.04722 13.0125 1.13693L2.0125 7.62296C1.85769 7.71511 1.72879 7.84843 1.63882 8.00947C1.54884 8.1705 1.50096 8.35355 1.5 8.54017V21.4598C1.50096 21.6464 1.54884 21.8295 1.63882 21.9905C1.72879 22.1516 1.85769 22.2849 2.0125 22.377L13.0125 28.8631C13.1607 28.9528 13.3289 29 13.5 29C13.6711 29 13.8393 28.9528 13.9875 28.8631L24.9875 22.377C25.1423 22.2849 25.2712 22.1516 25.3612 21.9905C25.4512 21.8295 25.499 21.6464 25.5 21.4598V21.4598Z" stroke="#141414" stroke-width="1.5" stroke-linecap="round" stroke-linejoin="round"/>
<path d="M19.5 18V11.0995L7.5 4" stroke="#141414" stroke-width="1.5" stroke-linecap="round" stroke-linejoin="round"/>
<path d="M25.5 8L13.6138 15L1.5 8" stroke="#141414" stroke-width="1.5" stroke-linecap="round" stroke-linejoin="round"/>
<path d="M13.5 15V29" stroke="#141414" stroke-width="1.5" stroke-linecap="round" stroke-linejoin="round"/>
</svg>
