<svg width="57" height="47" viewBox="0 0 57 47" fill="none" xmlns="http://www.w3.org/2000/svg">
<path d="M2.36719 45.6088H54.7481" stroke="#141414" stroke-width="2" stroke-linecap="round" stroke-linejoin="round"/>
<path d="M32.7481 45.6088V3.52181C32.7481 3.01444 32.5431 2.52785 32.1783 2.16908C31.8134 1.81032 31.3185 1.60876 30.8025 1.60876H7.45559C6.93959 1.60876 6.44472 1.81032 6.07986 2.16908C5.71499 2.52785 5.51001 3.01444 5.51001 3.52181V45.6088" stroke="#141414" stroke-width="2" stroke-linecap="round" stroke-linejoin="round"/>
<path d="M32.748 14.1802H48.6052C50.262 14.1802 51.6052 15.5233 51.6052 17.1802V44.5611H32.748V14.1802Z" fill="#FFD550" stroke="#141414" stroke-width="2" stroke-linecap="round" stroke-linejoin="round"/>
<path d="M13.8911 11.0374H21.2244" stroke="#141414" stroke-width="2" stroke-linecap="round" stroke-linejoin="round"/>
<path d="M1.31958 41.4183L1.31958 26.7517" stroke="#141414" stroke-width="2" stroke-linecap="round" stroke-linejoin="round"/>
<path d="M55.7957 30.9418L55.7957 16.2751" stroke="#141414" stroke-width="2" stroke-linecap="round" stroke-linejoin="round"/>
<path d="M35.8911 9.98975L43.2244 9.98975" stroke="#141414" stroke-width="2" stroke-linecap="round" stroke-linejoin="round"/>
<path d="M17.0339 26.7513H24.3673" stroke="#141414" stroke-width="2" stroke-linecap="round" stroke-linejoin="round"/>
<path d="M13.8911 36.1802H21.2244" stroke="#141414" stroke-width="2" stroke-linecap="round" stroke-linejoin="round"/>
<path d="M40.0815 36.1802H44.272" stroke="#141414" stroke-width="2" stroke-linecap="round" stroke-linejoin="round"/>
<path d="M40.0815 26.7513H44.272" stroke="#141414" stroke-width="2" stroke-linecap="round" stroke-linejoin="round"/>
</svg>
