<?xml version="1.0" encoding="utf-8"?>
<!-- Generator: Adobe Illustrator 25.2.1, SVG Export Plug-In . SVG Version: 6.00 Build 0)  -->
<svg version="1.1" id="Layer_1" xmlns="http://www.w3.org/2000/svg" xmlns:xlink="http://www.w3.org/1999/xlink" x="0px" y="0px"
	 viewBox="0 0 24 25" style="enable-background:new 0 0 24 25;" xml:space="preserve">
<style type="text/css">
	.st0{fill:none;stroke:#F6B426;stroke-width:2;stroke-linecap:round;stroke-linejoin:round;}
</style>
<g>
	<path class="st0" d="M3.7,4.1c-0.1,0-0.3,0-0.4,0.1S3.1,4.4,3,4.4C2.9,4.5,2.8,4.7,2.7,4.8c0,0.1-0.1,0.2-0.1,0.4
		c0.1,2.2,0.8,7.4,3.9,10.7c3.8,4,8.7,5.3,13.7,5.1c0.3,0,0.5-0.1,0.7-0.3c0.2-0.2,0.3-0.4,0.3-0.7v-3.5c0-0.3-0.1-0.6-0.3-0.9
		c-0.2-0.3-0.5-0.4-0.9-0.5l-2.5-0.5c-0.3-0.1-0.6,0-0.9,0.1c-0.3,0.1-0.5,0.3-0.7,0.5L15.4,16c-0.1,0.1-0.1,0.1-0.2,0.1
		c-0.1,0-0.2,0-0.3,0c-1.3-0.5-6.4-2.7-6.9-6.3c0-0.1,0-0.1,0-0.2c0-0.1,0.1-0.1,0.2-0.2l1-0.6c0.3-0.2,0.5-0.4,0.6-0.7
		C9.9,8,9.9,7.7,9.8,7.4L9.3,5.1C9.2,4.8,9,4.5,8.7,4.3C8.4,4.1,8.1,4,7.7,4L3.7,4.1z"/>
</g>
</svg>
