<svg width="32" height="18" viewBox="0 0 32 18" fill="none" xmlns="http://www.w3.org/2000/svg">
<path d="M29.4643 1H2.53571C1.96371 1 1.5 1.44772 1.5 2V16C1.5 16.5523 1.96371 17 2.53571 17H29.4643C30.0363 17 30.5 16.5523 30.5 16V2C30.5 1.44772 30.0363 1 29.4643 1Z" stroke="#1C1F35" stroke-width="1.5" stroke-linecap="round" stroke-linejoin="round"/>
<path d="M16 13C17.933 13 19.5 11.433 19.5 9.5C19.5 7.567 17.933 6 16 6C14.067 6 12.5 7.567 12.5 9.5C12.5 11.433 14.067 13 16 13Z" stroke="#1C1F35" stroke-width="1.5" stroke-linecap="round" stroke-linejoin="round"/>
<path d="M22.5 1L30.5 8" stroke="#1C1F35" stroke-width="1.5" stroke-linecap="round" stroke-linejoin="round"/>
<path d="M22.5 17L30.5 10" stroke="#1C1F35" stroke-width="1.5" stroke-linecap="round" stroke-linejoin="round"/>
<path d="M9.5 1L1.5 8" stroke="#1C1F35" stroke-width="1.5" stroke-linecap="round" stroke-linejoin="round"/>
<path d="M9.5 17L1.5 10" stroke="#1C1F35" stroke-width="1.5" stroke-linecap="round" stroke-linejoin="round"/>
</svg>
