<svg width="27" height="26" viewBox="0 0 27 26" fill="none" xmlns="http://www.w3.org/2000/svg">
<path d="M13.5568 1C20.1842 1 25.5568 6.37258 25.5568 13C25.5568 19.6274 20.1842 25 13.5568 25C6.92935 25 1.55676 19.6274 1.55676 13C1.55676 6.37258 6.92935 1 13.5568 1Z" stroke="#1C1F35" stroke-width="2" stroke-linecap="round" stroke-linejoin="round"/>
<path d="M2.55676 17H24.5568" stroke="#1C1F35" stroke-width="2" stroke-linecap="round" stroke-linejoin="round"/>
<path d="M2.55676 9H24.5568" stroke="#1C1F35" stroke-width="2" stroke-linecap="round" stroke-linejoin="round"/>
<path d="M13.5568 1C15.7659 1 17.5568 6.37258 17.5568 13C17.5568 19.6274 15.7659 25 13.5568 25C11.3476 25 9.55676 19.6274 9.55676 13C9.55676 6.37258 11.3476 1 13.5568 1Z" stroke="#1C1F35" stroke-width="2" stroke-linecap="round" stroke-linejoin="round"/>
</svg>
