<svg width="22" height="22" viewBox="0 0 22 22" fill="none" xmlns="http://www.w3.org/2000/svg">
<path d="M20.5568 10.143H17.4146C16.998 10.143 16.5984 10.3035 16.3037 10.5893C16.0091 10.8751 15.8436 11.2626 15.8436 11.6668V15.4762C15.8436 15.8804 16.0091 16.2679 16.3037 16.5537C16.5984 16.8395 16.998 17 17.4146 17H18.9857C19.4024 17 19.802 16.8395 20.0966 16.5537C20.3912 16.2679 20.5568 15.8804 20.5568 15.4762V10.143ZM20.5568 10.143C20.5568 8.93592 20.3104 7.74079 19.8318 6.62656C19.3532 5.51232 18.6518 4.50104 17.7681 3.65106C16.8845 2.80108 15.836 2.12923 14.6833 1.67427C13.5306 1.21932 12.2963 0.990259 11.0519 1.00032C9.80819 0.991522 8.57504 1.22151 7.42343 1.67703C6.27183 2.13256 5.22455 2.80461 4.34194 3.65446C3.45932 4.50431 2.75883 5.51517 2.28082 6.62878C1.80281 7.74238 1.55673 8.93673 1.55676 10.143V15.4762C1.55676 15.8804 1.72228 16.2679 2.01692 16.5537C2.31155 16.8395 2.71115 17 3.12782 17H4.69888C5.11555 17 5.51516 16.8395 5.80979 16.5537C6.10442 16.2679 6.26994 15.8804 6.26994 15.4762V11.6668C6.26994 11.2626 6.10442 10.8751 5.80979 10.5893C5.51516 10.3035 5.11555 10.143 4.69888 10.143H1.55676" stroke="#1C1F35" stroke-width="2" stroke-linecap="round" stroke-linejoin="round"/>
<path d="M20.5568 16V18.1429C20.5568 18.9006 20.2177 19.6273 19.6143 20.1632C19.0108 20.699 18.1923 21 17.3389 21H11.5568" stroke="#1C1F35" stroke-width="2" stroke-linecap="round" stroke-linejoin="round"/>
</svg>
