<svg width="20" height="52" viewBox="0 0 206 52" fill="none" xmlns="http://www.w3.org/2000/svg">
<path d="M61.6026 14.7416H64.3026C64.3559 15.1949 64.5626 15.6082 64.9226 15.9816C65.2959 16.3416 65.7826 16.6282 66.3826 16.8416C66.9826 17.0416 67.6559 17.1416 68.4026 17.1416C69.0826 17.1416 69.6426 17.0682 70.0826 16.9216C70.5226 16.7749 70.8493 16.5682 71.0626 16.3016C71.2759 16.0349 71.3826 15.7149 71.3826 15.3416C71.3826 14.9816 71.2493 14.7082 70.9826 14.5216C70.7159 14.3216 70.2959 14.1616 69.7226 14.0416C69.1493 13.9082 68.3959 13.7749 67.4626 13.6416C66.7293 13.5349 66.0359 13.3882 65.3826 13.2016C64.7293 13.0016 64.1493 12.7482 63.6426 12.4416C63.1493 12.1349 62.7559 11.7616 62.4626 11.3216C62.1826 10.8682 62.0426 10.3349 62.0426 9.72156C62.0426 8.96156 62.2559 8.2949 62.6826 7.72156C63.1226 7.14823 63.7693 6.70156 64.6226 6.38156C65.4759 6.06156 66.5226 5.90156 67.7626 5.90156C69.6293 5.90156 71.0626 6.30156 72.0626 7.10156C73.0759 7.88823 73.5693 8.9749 73.5426 10.3616H70.9426C70.8893 9.5749 70.5559 9.00823 69.9426 8.66156C69.3426 8.3149 68.5826 8.14156 67.6626 8.14156C66.8093 8.14156 66.1026 8.26823 65.5426 8.52156C64.9959 8.77489 64.7226 9.20823 64.7226 9.82156C64.7226 10.0616 64.7893 10.2749 64.9226 10.4616C65.0559 10.6349 65.2826 10.7882 65.6026 10.9216C65.9226 11.0549 66.3559 11.1816 66.9026 11.3016C67.4493 11.4216 68.1293 11.5416 68.9426 11.6616C69.7026 11.7682 70.3893 11.9149 71.0026 12.1016C71.6293 12.2749 72.1626 12.5082 72.6026 12.8016C73.0559 13.0816 73.4026 13.4416 73.6426 13.8816C73.8826 14.3216 74.0026 14.8616 74.0026 15.5016C74.0026 16.2882 73.7959 16.9749 73.3826 17.5616C72.9826 18.1349 72.3559 18.5816 71.5026 18.9016C70.6626 19.2216 69.5693 19.3816 68.2226 19.3816C67.2626 19.3816 66.4159 19.2816 65.6826 19.0816C64.9493 18.8682 64.3159 18.5882 63.7826 18.2416C63.2493 17.8949 62.8159 17.5149 62.4826 17.1016C62.1493 16.6882 61.9093 16.2749 61.7626 15.8616C61.6293 15.4482 61.5759 15.0749 61.6026 14.7416ZM86.5093 6.16156H100.149V8.38156H86.5093V6.16156ZM92.0093 8.10156H94.6693V19.1016H92.0093V8.10156ZM125.263 13.3816V6.16156H127.923V13.6616C127.923 14.5149 127.796 15.2616 127.543 15.9016C127.303 16.5416 126.956 17.0816 126.503 17.5216C126.05 17.9616 125.516 18.3216 124.903 18.6016C124.303 18.8682 123.643 19.0616 122.923 19.1816C122.216 19.3016 121.47 19.3616 120.683 19.3616C119.87 19.3616 119.096 19.3016 118.363 19.1816C117.63 19.0616 116.956 18.8682 116.343 18.6016C115.743 18.3216 115.223 17.9616 114.783 17.5216C114.343 17.0816 113.996 16.5416 113.743 15.9016C113.503 15.2616 113.383 14.5149 113.383 13.6616V6.16156H116.043V13.3816C116.043 14.3949 116.243 15.1682 116.643 15.7016C117.043 16.2216 117.59 16.5816 118.283 16.7816C118.99 16.9682 119.79 17.0616 120.683 17.0616C121.55 17.0616 122.323 16.9682 123.003 16.7816C123.696 16.5816 124.243 16.2216 124.643 15.7016C125.056 15.1682 125.263 14.3949 125.263 13.3816ZM149.7 6.16156C151.153 6.16156 152.367 6.3349 153.34 6.68156C154.313 7.02823 155.087 7.50156 155.66 8.10156C156.247 8.68823 156.66 9.36823 156.9 10.1416C157.153 10.9149 157.28 11.7282 157.28 12.5816C157.28 13.4349 157.14 14.2549 156.86 15.0416C156.593 15.8282 156.16 16.5282 155.56 17.1416C154.973 17.7416 154.193 18.2216 153.22 18.5816C152.26 18.9282 151.087 19.1016 149.7 19.1016H142.3V6.16156H149.7ZM144.96 16.8216H149.64C150.6 16.8216 151.393 16.7082 152.02 16.4816C152.66 16.2416 153.167 15.9216 153.54 15.5216C153.913 15.1216 154.18 14.6682 154.34 14.1616C154.5 13.6549 154.58 13.1282 154.58 12.5816C154.58 12.0349 154.5 11.5149 154.34 11.0216C154.18 10.5282 153.913 10.0882 153.54 9.70156C153.167 9.3149 152.66 9.00823 152.02 8.78156C151.393 8.55489 150.6 8.44156 149.64 8.44156H144.96V16.8216ZM171.558 6.16156H174.218V19.1016H171.558V6.16156ZM196.663 19.3616C194.943 19.3616 193.469 19.0949 192.243 18.5616C191.029 18.0149 190.096 17.2416 189.443 16.2416C188.803 15.2416 188.483 14.0416 188.483 12.6416C188.483 11.2282 188.803 10.0216 189.443 9.02156C190.096 8.02156 191.029 7.25489 192.243 6.72156C193.469 6.1749 194.943 5.90156 196.663 5.90156C198.396 5.90156 199.869 6.1749 201.083 6.72156C202.296 7.25489 203.223 8.02156 203.863 9.02156C204.516 10.0216 204.843 11.2282 204.843 12.6416C204.843 14.0416 204.516 15.2416 203.863 16.2416C203.223 17.2416 202.296 18.0149 201.083 18.5616C199.869 19.0949 198.396 19.3616 196.663 19.3616ZM196.663 17.0616C197.729 17.0616 198.663 16.9016 199.463 16.5816C200.276 16.2616 200.909 15.7749 201.363 15.1216C201.829 14.4682 202.063 13.6416 202.063 12.6416C202.063 11.6416 201.829 10.8149 201.363 10.1616C200.909 9.50823 200.276 9.02156 199.463 8.70156C198.663 8.36823 197.729 8.20156 196.663 8.20156C195.609 8.20156 194.669 8.36823 193.843 8.70156C193.016 9.02156 192.369 9.50823 191.903 10.1616C191.436 10.8149 191.203 11.6416 191.203 12.6416C191.203 13.6416 191.436 14.4682 191.903 15.1216C192.369 15.7749 193.016 16.2616 193.843 16.5816C194.669 16.9016 195.609 17.0616 196.663 17.0616ZM69.9026 43.3616C68.7026 43.3616 67.6159 43.2216 66.6426 42.9416C65.6826 42.6616 64.8493 42.2416 64.1426 41.6816C63.4493 41.1216 62.9159 40.4282 62.5426 39.6016C62.1693 38.7749 61.9826 37.8216 61.9826 36.7416C61.9826 35.6482 62.1759 34.6816 62.5626 33.8416C62.9626 32.9882 63.5226 32.2682 64.2426 31.6816C64.9759 31.0949 65.8426 30.6549 66.8426 30.3616C67.8559 30.0549 68.9759 29.9016 70.2026 29.9016C71.6559 29.9016 72.9093 30.1082 73.9626 30.5216C75.0159 30.9216 75.8426 31.4882 76.4426 32.2216C77.0559 32.9549 77.4026 33.8282 77.4826 34.8416H74.9226C74.7493 34.3082 74.4626 33.8482 74.0626 33.4616C73.6759 33.0616 73.1626 32.7549 72.5226 32.5416C71.8826 32.3149 71.1093 32.2016 70.2026 32.2016C69.0426 32.2016 68.0493 32.3882 67.2226 32.7616C66.4093 33.1349 65.7893 33.6616 65.3626 34.3416C64.9359 35.0216 64.7226 35.8216 64.7226 36.7416C64.7226 37.6349 64.9093 38.4082 65.2826 39.0616C65.6559 39.7016 66.2293 40.1949 67.0026 40.5416C67.7893 40.8882 68.7893 41.0616 70.0026 41.0616C70.9359 41.0616 71.7559 40.9416 72.4626 40.7016C73.1826 40.4482 73.7826 40.1149 74.2626 39.7016C74.7426 39.2749 75.0826 38.8016 75.2826 38.2816L76.3226 37.9016C76.1493 39.6216 75.4959 40.9616 74.3626 41.9216C73.2426 42.8816 71.7559 43.3616 69.9026 43.3616ZM75.6426 43.1016C75.6426 42.6882 75.6693 42.2149 75.7226 41.6816C75.7759 41.1349 75.8426 40.5882 75.9226 40.0416C76.0026 39.4816 76.0759 38.9682 76.1426 38.5016H70.2226V36.8016H77.9426V43.1016H75.6426ZM95.8439 43.1016V30.1616H104.624C105.624 30.1616 106.491 30.3016 107.224 30.5816C107.971 30.8482 108.551 31.2749 108.964 31.8616C109.377 32.4349 109.584 33.1749 109.584 34.0816C109.584 34.6949 109.477 35.2149 109.264 35.6416C109.051 36.0682 108.751 36.4149 108.364 36.6816C107.991 36.9482 107.557 37.1549 107.064 37.3016C106.571 37.4349 106.044 37.5216 105.484 37.5616L105.204 37.4016C106.137 37.4149 106.904 37.4949 107.504 37.6416C108.104 37.7749 108.551 38.0282 108.844 38.4016C109.151 38.7616 109.304 39.3016 109.304 40.0216V43.1016H106.644V40.2016C106.644 39.7082 106.557 39.3282 106.384 39.0616C106.211 38.7816 105.897 38.5882 105.444 38.4816C105.004 38.3749 104.364 38.3216 103.524 38.3216H98.5039V43.1016H95.8439ZM98.5039 36.2416H104.624C105.371 36.2416 105.937 36.0616 106.324 35.7016C106.724 35.3416 106.924 34.8549 106.924 34.2416C106.924 33.6549 106.724 33.2082 106.324 32.9016C105.937 32.5949 105.371 32.4416 104.624 32.4416H98.5039V36.2416ZM130.127 37.7016V40.8816H140.107V43.1016H127.467V30.1616H140.087V32.3816H130.127V35.6016H138.287V37.7016H130.127ZM160.598 37.7016V40.8816H170.578V43.1016H157.938V30.1616H170.558V32.3816H160.598V35.6016H168.758V37.7016H160.598ZM201.529 40.4616L200.689 40.8016V30.1616H203.349V43.1016H200.689L190.229 32.8816L191.069 32.5416V43.1016H188.409V30.1616H191.069L201.529 40.4616Z" fill="white"/>
<path d="M26.3043 0L27.783 17.4183L35.1299 1.55619L30.562 18.4297L42.891 6.03706L32.8275 20.3307L48.6515 12.9022L34.3062 22.8919L51.7166 21.3234L34.8197 25.8043L51.7166 30.2852L34.3062 28.7168L48.6515 38.7065L32.8275 31.2779L42.891 45.5716L30.562 33.1789L35.1299 50.0525L27.783 34.1904L26.3043 51.6086L24.8256 34.1904L17.4787 50.0525L22.0466 33.1789L9.71762 45.5716L19.7811 31.2779L3.95712 38.7065L18.3024 28.7168L0.892025 30.2852L17.7889 25.8043L0.892025 21.3234L18.3024 22.8919L3.95712 12.9022L19.7811 20.3307L9.71762 6.03706L22.0466 18.4297L17.4787 1.55619L24.8256 17.4183L26.3043 0Z" fill="white"/>
</svg>
