<svg width="87" height="39" viewBox="0 0 87 39" fill="none" xmlns="http://www.w3.org/2000/svg">
<path d="M13.148 0.000488281H17.054V38.5645H12.404L4.406 8.68049V38.5645H0.5V0.000488281H5.46L13.148 28.8305V0.000488281Z" fill="white"/>
<path d="M24.7391 0.000488281H31.0631C34.3284 0.000488281 35.9611 1.63315 35.9611 4.89849V33.6665C35.9611 36.9318 34.3284 38.5645 31.0631 38.5645H24.7391C21.4738 38.5645 19.8411 36.9318 19.8411 33.6665V4.89849C19.8411 1.63315 21.4738 0.000488281 24.7391 0.000488281ZM31.7451 32.9845V5.58049C31.7451 4.75382 31.6211 4.23715 31.3731 4.03049C31.1251 3.78249 30.6084 3.65849 29.8231 3.65849H25.9791C25.1938 3.65849 24.6771 3.78249 24.4291 4.03049C24.1811 4.23715 24.0571 4.75382 24.0571 5.58049V32.9845C24.0571 33.8112 24.1811 34.3485 24.4291 34.5965C24.6771 34.8032 25.1938 34.9065 25.9791 34.9065H29.8231C30.6084 34.9065 31.1251 34.8032 31.3731 34.5965C31.6211 34.3485 31.7451 33.8112 31.7451 32.9845Z" fill="white"/>
<path d="M42.9889 22.4445V38.5645H38.7729V0.000488281H49.9949C53.2602 0.000488281 54.8929 1.63315 54.8929 4.89849V17.5465C54.8929 20.4812 53.6116 22.0932 51.0489 22.3825L56.8769 38.5645H52.2889L46.6469 22.4445H42.9889ZM42.9889 3.65849V18.7865H48.7549C49.5816 18.7865 50.0982 18.6832 50.3049 18.4765C50.5529 18.2285 50.6769 17.6912 50.6769 16.8645V5.58049C50.6769 4.75382 50.5529 4.23715 50.3049 4.03049C50.0982 3.78249 49.5816 3.65849 48.7549 3.65849H42.9889Z" fill="white"/>
<path d="M71.1529 0.000488281V3.65849H64.9529V38.5645H60.7369V3.65849H54.5369V0.000488281H71.1529Z" fill="white"/>
<path d="M75.7607 0.000488281H82.0847C85.3501 0.000488281 86.9827 1.63315 86.9827 4.89849V33.6665C86.9827 36.9318 85.3501 38.5645 82.0847 38.5645H75.7607C72.4954 38.5645 70.8627 36.9318 70.8627 33.6665V4.89849C70.8627 1.63315 72.4954 0.000488281 75.7607 0.000488281ZM82.7667 32.9845V5.58049C82.7667 4.75382 82.6427 4.23715 82.3947 4.03049C82.1467 3.78249 81.6301 3.65849 80.8447 3.65849H77.0007C76.2154 3.65849 75.6987 3.78249 75.4507 4.03049C75.2027 4.23715 75.0787 4.75382 75.0787 5.58049V32.9845C75.0787 33.8112 75.2027 34.3485 75.4507 34.5965C75.6987 34.8032 76.2154 34.9065 77.0007 34.9065H80.8447C81.6301 34.9065 82.1467 34.8032 82.3947 34.5965C82.6427 34.3485 82.7667 33.8112 82.7667 32.9845Z" fill="white"/>
</svg>
