<svg width="186" height="48" viewBox="0 0 186 48" fill="none" xmlns="http://www.w3.org/2000/svg">
<path d="M62.8622 12.3369V16.1943C62.8622 17.0277 62.9533 17.5452 63.1356 17.7471C63.383 18.0335 63.7574 18.1768 64.2587 18.1768H64.7665V18.5381H59.0927V18.1768H59.5907C60.1506 18.1768 60.551 17.9945 60.7919 17.6299C60.9221 17.4281 60.9872 16.9495 60.9872 16.1943V7.63965C60.9872 6.80632 60.8993 6.28874 60.7235 6.08691C60.4696 5.80046 60.092 5.65723 59.5907 5.65723H59.0927V5.2959H63.9462C65.1311 5.2959 66.0653 5.4196 66.7489 5.66699C67.4325 5.90788 68.0087 6.31803 68.4774 6.89746C68.9462 7.47689 69.1805 8.16374 69.1805 8.95801C69.1805 10.0387 68.8225 10.9176 68.1063 11.5947C67.3967 12.2718 66.3908 12.6104 65.0887 12.6104C64.7697 12.6104 64.4247 12.5876 64.0536 12.542C63.6825 12.4964 63.2854 12.4281 62.8622 12.3369ZM62.8622 11.7803C63.2072 11.8454 63.5132 11.8942 63.7802 11.9268C64.0471 11.9593 64.2749 11.9756 64.4637 11.9756C65.1408 11.9756 65.7235 11.7152 66.2118 11.1943C66.7066 10.667 66.954 9.98665 66.954 9.15332C66.954 8.5804 66.8368 8.0498 66.6024 7.56152C66.368 7.06673 66.036 6.69889 65.6063 6.45801C65.1766 6.21061 64.6884 6.08691 64.1415 6.08691C63.8094 6.08691 63.383 6.14876 62.8622 6.27246V11.7803ZM88.5079 4.99316C90.2266 4.99316 91.7143 5.64746 92.9708 6.95605C94.2338 8.25814 94.8653 9.88574 94.8653 11.8389C94.8653 13.8506 94.2305 15.5205 92.961 16.8486C91.6915 18.1768 90.155 18.8408 88.3516 18.8408C86.5287 18.8408 84.9955 18.193 83.752 16.8975C82.515 15.6019 81.8966 13.9255 81.8966 11.8682C81.8966 9.7653 82.6127 8.0498 84.045 6.72168C85.2885 5.56934 86.7761 4.99316 88.5079 4.99316ZM88.3223 5.70605C87.1374 5.70605 86.1869 6.14551 85.4708 7.02441C84.5788 8.11816 84.1329 9.71973 84.1329 11.8291C84.1329 13.9906 84.5951 15.654 85.5196 16.8193C86.2292 17.7048 87.1667 18.1475 88.3321 18.1475C89.5756 18.1475 90.601 17.6624 91.4083 16.6924C92.2221 15.7223 92.629 14.1924 92.629 12.1025C92.629 9.83691 92.183 8.14746 91.2911 7.03418C90.5749 6.14876 89.5854 5.70605 88.3223 5.70605ZM113.118 18.1768V18.5381H107.445V18.1768H107.913C108.46 18.1768 108.857 18.0173 109.105 17.6982C109.261 17.4899 109.339 16.9886 109.339 16.1943V7.63965C109.339 6.96908 109.297 6.52637 109.212 6.31152C109.147 6.14876 109.014 6.00879 108.812 5.8916C108.525 5.73535 108.226 5.65723 107.913 5.65723H107.445V5.2959H113.118V5.65723H112.64C112.1 5.65723 111.706 5.81673 111.458 6.13574C111.296 6.34408 111.214 6.84538 111.214 7.63965V16.1943C111.214 16.8649 111.256 17.3076 111.341 17.5225C111.406 17.6852 111.543 17.8252 111.751 17.9424C112.031 18.0986 112.327 18.1768 112.64 18.1768H113.118ZM124.643 5.2959H128.237L136.332 15.2275V7.59082C136.332 6.77702 136.241 6.26921 136.059 6.06738C135.818 5.79395 135.437 5.65723 134.916 5.65723H134.457V5.2959H139.067V5.65723H138.598C138.038 5.65723 137.641 5.8265 137.407 6.16504C137.263 6.37337 137.192 6.84863 137.192 7.59082V18.7529H136.84L128.11 8.08887V16.2432C128.11 17.057 128.198 17.5648 128.374 17.7666C128.621 18.04 129.002 18.1768 129.516 18.1768H129.985V18.5381H125.375V18.1768H125.834C126.401 18.1768 126.801 18.0075 127.036 17.6689C127.179 17.4606 127.25 16.9854 127.25 16.2432V7.03418C126.866 6.58496 126.573 6.28874 126.372 6.14551C126.176 6.00228 125.887 5.86882 125.502 5.74512C125.314 5.68652 125.027 5.65723 124.643 5.65723V5.2959ZM162.232 5.2959L162.379 8.40137H162.007C161.936 7.85449 161.838 7.46387 161.715 7.22949C161.513 6.85189 161.243 6.5752 160.904 6.39941C160.572 6.21712 160.132 6.12598 159.586 6.12598H157.72V16.2432C157.72 17.057 157.808 17.5648 157.984 17.7666C158.231 18.04 158.612 18.1768 159.127 18.1768H159.586V18.5381H153.97V18.1768H154.439C154.999 18.1768 155.396 18.0075 155.631 17.6689C155.774 17.4606 155.845 16.9854 155.845 16.2432V6.12598H154.254C153.635 6.12598 153.196 6.17155 152.935 6.2627C152.597 6.38639 152.307 6.62402 152.066 6.97559C151.825 7.32715 151.682 7.80241 151.636 8.40137H151.265L151.422 5.2959H162.232ZM183.356 4.99316V9.57324H182.995C182.878 8.69434 182.666 7.99447 182.36 7.47363C182.061 6.9528 181.631 6.53939 181.071 6.2334C180.511 5.92741 179.932 5.77441 179.333 5.77441C178.656 5.77441 178.096 5.98275 177.653 6.39941C177.21 6.80957 176.989 7.27832 176.989 7.80566C176.989 8.20931 177.129 8.57715 177.409 8.90918C177.813 9.39746 178.773 10.0485 180.29 10.8623C181.527 11.5264 182.37 12.0374 182.819 12.3955C183.275 12.7471 183.623 13.1637 183.864 13.6455C184.112 14.1273 184.235 14.6318 184.235 15.1592C184.235 16.1618 183.845 17.0277 183.063 17.7568C182.289 18.4795 181.289 18.8408 180.065 18.8408C179.681 18.8408 179.32 18.8115 178.981 18.7529C178.78 18.7204 178.36 18.6032 177.722 18.4014C177.09 18.193 176.69 18.0889 176.52 18.0889C176.358 18.0889 176.227 18.1377 176.13 18.2354C176.039 18.333 175.97 18.5348 175.925 18.8408H175.563V14.2998H175.925C176.094 15.2503 176.322 15.9632 176.608 16.4385C176.895 16.9072 177.331 17.2979 177.917 17.6104C178.509 17.9229 179.157 18.0791 179.86 18.0791C180.674 18.0791 181.315 17.8643 181.784 17.4346C182.259 17.0049 182.497 16.4971 182.497 15.9111C182.497 15.5856 182.406 15.2568 182.224 14.9248C182.048 14.5928 181.771 14.2835 181.393 13.9971C181.14 13.8018 180.446 13.3883 179.313 12.7568C178.181 12.1188 177.373 11.611 176.891 11.2334C176.416 10.8558 176.055 10.4391 175.807 9.9834C175.56 9.52767 175.436 9.02637 175.436 8.47949C175.436 7.52897 175.801 6.71191 176.53 6.02832C177.259 5.33822 178.187 4.99316 179.313 4.99316C180.016 4.99316 180.762 5.16569 181.55 5.51074C181.914 5.6735 182.171 5.75488 182.321 5.75488C182.49 5.75488 182.627 5.70605 182.731 5.6084C182.842 5.50423 182.93 5.29915 182.995 4.99316H183.356ZM66.0751 27.9932C67.7938 27.9932 69.2815 28.6475 70.538 29.9561C71.801 31.2581 72.4325 32.8857 72.4325 34.8389C72.4325 36.8506 71.7977 38.5205 70.5282 39.8486C69.2587 41.1768 67.7222 41.8408 65.9188 41.8408C64.0959 41.8408 62.5627 41.193 61.3192 39.8975C60.0822 38.6019 59.4637 36.9255 59.4637 34.8682C59.4637 32.7653 60.1799 31.0498 61.6122 29.7217C62.8557 28.5693 64.3433 27.9932 66.0751 27.9932ZM65.8895 28.7061C64.7046 28.7061 63.7541 29.1455 63.038 30.0244C62.146 31.1182 61.7001 32.7197 61.7001 34.8291C61.7001 36.9906 62.1623 38.654 63.0868 39.8193C63.7964 40.7048 64.7339 41.1475 65.8993 41.1475C67.1428 41.1475 68.1682 40.6624 68.9755 39.6924C69.7893 38.7223 70.1962 37.1924 70.1962 35.1025C70.1962 32.8369 69.7502 31.1475 68.8583 30.0342C68.1421 29.1488 67.1525 28.7061 65.8895 28.7061ZM84.2501 28.2959H87.8438L95.9395 38.2275V30.5908C95.9395 29.777 95.8484 29.2692 95.6661 29.0674C95.4252 28.7939 95.0443 28.6572 94.5235 28.6572H94.0645V28.2959H98.6739V28.6572H98.2052C97.6453 28.6572 97.2481 28.8265 97.0137 29.165C96.8705 29.3734 96.7989 29.8486 96.7989 30.5908V41.7529H96.4473L87.7169 31.0889V39.2432C87.7169 40.057 87.8048 40.5648 87.9805 40.7666C88.2279 41.04 88.6088 41.1768 89.1231 41.1768H89.5919V41.5381H84.9825V41.1768H85.4415C86.0079 41.1768 86.4083 41.0075 86.6427 40.6689C86.7859 40.4606 86.8575 39.9854 86.8575 39.2432V30.0342C86.4734 29.585 86.1804 29.2887 85.9786 29.1455C85.7833 29.0023 85.4936 28.8688 85.1094 28.7451C84.9206 28.6865 84.6342 28.6572 84.2501 28.6572V28.2959ZM114.447 29.0186V34.2529H117.357C118.112 34.2529 118.616 34.139 118.87 33.9111C119.209 33.6117 119.398 33.0843 119.437 32.3291H119.798V36.9385H119.437C119.346 36.2939 119.254 35.8805 119.163 35.6982C119.046 35.4704 118.854 35.2913 118.587 35.1611C118.32 35.0309 117.91 34.9658 117.357 34.9658H114.447V39.3311C114.447 39.917 114.473 40.2751 114.525 40.4053C114.577 40.529 114.668 40.6299 114.798 40.708C114.928 40.7796 115.176 40.8154 115.54 40.8154H117.786C118.535 40.8154 119.079 40.7633 119.417 40.6592C119.756 40.555 120.081 40.3499 120.394 40.0439C120.797 39.6403 121.211 39.0316 121.634 38.2178H122.025L120.882 41.5381H110.677V41.1768H111.146C111.458 41.1768 111.754 41.1019 112.034 40.9521C112.243 40.848 112.383 40.6917 112.454 40.4834C112.532 40.2751 112.572 39.8486 112.572 39.2041V30.6006C112.572 29.7607 112.487 29.2432 112.318 29.0479C112.083 28.7874 111.693 28.6572 111.146 28.6572H110.677V28.2959H120.882L121.029 31.1963H120.648C120.511 30.4997 120.358 30.0212 120.189 29.7607C120.026 29.5003 119.782 29.3018 119.456 29.165C119.196 29.0674 118.737 29.0186 118.079 29.0186H114.447Z" fill="white"/>
<path d="M6.20119 13.3018L24.1843 0.611952L42.1675 13.3018L44.1656 35.2205L24.1843 44.4495L4.20306 35.2205L6.20119 13.3018Z" stroke="white"/>
<path d="M9.56476 15.2437L24.1843 4.92738L38.8039 15.2437L40.4283 33.0628L24.1843 40.5655L7.94036 33.0628L9.56476 15.2437Z" stroke="white"/>
<path d="M12.8785 17.1568L24.1843 9.17885L35.4901 17.1568L36.7463 30.9368L24.1843 36.739L11.6223 30.9368L12.8785 17.1568Z" stroke="white"/>
<path d="M16.5542 19.2789L24.1843 13.8947L31.8145 19.2789L32.6623 28.5789L24.1843 32.4947L15.7064 28.5789L16.5542 19.2789Z" stroke="white"/>
<rect x="127.365" y="28.4326" width="57.5341" height="2.17102" fill="white"/>
<rect x="127.365" y="33.498" width="57.5341" height="2.17102" fill="white"/>
<rect x="127.365" y="38.6846" width="57.5341" height="2.17102" fill="white"/>
</svg>
