<svg width="173" height="39" viewBox="0 0 173 39" fill="none" xmlns="http://www.w3.org/2000/svg">
<path d="M0.339844 6.51172C0.339844 4.85807 0.802083 3.47135 1.72656 2.35156C2.65104 1.23177 3.86198 0.671875 5.35938 0.671875C6.86979 0.671875 8.08073 1.23828 8.99219 2.37109C9.91667 3.49089 10.3789 4.87109 10.3789 6.51172C10.3789 8.13932 9.91667 9.51953 8.99219 10.6523C8.08073 11.7721 6.86979 12.332 5.35938 12.332C3.86198 12.332 2.65104 11.7721 1.72656 10.6523C0.802083 9.53255 0.339844 8.15234 0.339844 6.51172ZM1.39453 6.49219C1.39453 7.76823 1.74609 8.90104 2.44922 9.89062C3.16536 10.8672 4.13542 11.3555 5.35938 11.3555C6.58333 11.3555 7.54688 10.8737 8.25 9.91016C8.96615 8.93359 9.32422 7.79427 9.32422 6.49219C9.32422 5.17708 8.96615 4.04427 8.25 3.09375C7.53385 2.13021 6.57031 1.64844 5.35938 1.64844C4.10938 1.64844 3.13281 2.14323 2.42969 3.13281C1.73958 4.10938 1.39453 5.22917 1.39453 6.49219ZM22.9875 1.00391H27.3625V1.92188H25.3703V7.42969C25.3703 8.61458 25.494 9.46094 25.7414 9.96875C26.1841 10.8932 27.0565 11.3555 28.3586 11.3555C29.7128 11.3555 30.5982 10.9453 31.0148 10.125C31.2753 9.65625 31.4055 8.82292 31.4055 7.625V1.92188H29.4133V1.00391H33.7883V1.92188H32.382V7.625C32.382 9.16146 32.1477 10.2552 31.6789 10.9062C31.4185 11.2708 31.0018 11.6029 30.4289 11.9023C29.856 12.1888 29.1724 12.332 28.3781 12.332C26.8807 12.332 25.774 11.8242 25.0578 10.8086C24.6151 10.1706 24.3937 9.04427 24.3937 7.42969V1.92188H22.9875V1.00391ZM46.7094 1.00391H56.0844L56.4164 5.61328L55.4789 5.73047L55.2055 1.92188H51.8852V11.082H54.2484V12H48.5453V11.082H50.9086V1.92188H47.5883L47.3148 5.73047L46.3773 5.61328L46.7094 1.00391ZM69.3961 6.51172C69.3961 4.85807 69.8583 3.47135 70.7828 2.35156C71.7073 1.23177 72.9182 0.671875 74.4156 0.671875C75.926 0.671875 77.137 1.23828 78.0484 2.37109C78.9729 3.49089 79.4352 4.87109 79.4352 6.51172C79.4352 8.13932 78.9729 9.51953 78.0484 10.6523C77.137 11.7721 75.926 12.332 74.4156 12.332C72.9182 12.332 71.7073 11.7721 70.7828 10.6523C69.8583 9.53255 69.3961 8.15234 69.3961 6.51172ZM70.4508 6.49219C70.4508 7.76823 70.8023 8.90104 71.5055 9.89062C72.2216 10.8672 73.1917 11.3555 74.4156 11.3555C75.6396 11.3555 76.6031 10.8737 77.3063 9.91016C78.0224 8.93359 78.3805 7.79427 78.3805 6.49219C78.3805 5.17708 78.0224 4.04427 77.3063 3.09375C76.5901 2.13021 75.6266 1.64844 74.4156 1.64844C73.1656 1.64844 72.1891 2.14323 71.4859 3.13281C70.7958 4.10938 70.4508 5.22917 70.4508 6.49219ZM92.9812 1.00391H102.141L102.239 4.51953H101.36L101.126 1.92188H95.5398V5.73047H98.7039V4.30469H99.6023V8.05469H98.7039V6.64844H95.5398V11.082H98.0789V12H92.9812V11.082H94.5633V1.92188H92.9812V1.00391ZM115.766 1.00391H125.141L125.473 5.61328L124.535 5.73047L124.262 1.92188H120.941V11.082H123.305V12H117.602V11.082H119.965V1.92188H116.645L116.371 5.73047L115.434 5.61328L115.766 1.00391ZM138.374 1.00391H142.28V1.92188H140.816V5.86719H146.128V1.92188H144.663V1.00391H148.589V1.92188H147.105V11.082H148.589V12H144.663V11.082H146.128V6.78516H140.816V11.082H142.28V12H138.374V11.082H139.839V1.92188H138.374V1.00391ZM161.745 1.00391H171.022L171.1 4.59766H170.202L170.006 1.92188H164.381V5.73047H167.545V4.30469H168.444V8.05469H167.545V6.64844H164.381V11.082H170.202L170.299 8.40625H171.198V12H161.745V11.082H163.405V1.92188H161.745V1.00391ZM8.52344 26.7891H9.40234C9.28516 27.2969 9.22656 27.7656 9.22656 28.1953C9.22656 28.7943 9.28516 29.569 9.40234 30.5195L8.52344 30.6758C8.41927 29.9076 8.21745 29.2956 7.91797 28.8398C7.39714 28.0456 6.57031 27.6484 5.4375 27.6484C4.5 27.6484 3.77083 27.8893 3.25 28.3711C2.74219 28.8529 2.48828 29.3802 2.48828 29.9531C2.48828 30.3698 2.58594 30.7214 2.78125 31.0078C2.98958 31.2943 3.27604 31.5091 3.64062 31.6523C4.01823 31.7826 4.32422 31.8737 4.55859 31.9258C4.79297 31.9648 5.09245 32.0039 5.45703 32.043C6.27734 32.1341 6.8763 32.2253 7.25391 32.3164C7.64453 32.3945 7.99609 32.5378 8.30859 32.7461C9.11589 33.293 9.51953 34.0482 9.51953 35.0117C9.51953 36.0664 9.11589 36.8867 8.30859 37.4727C7.5013 38.0456 6.57031 38.332 5.51562 38.332C4.44792 38.332 3.55599 38.0326 2.83984 37.4336C2.78776 37.3815 2.73568 37.3555 2.68359 37.3555C2.61849 37.3555 2.55339 37.4076 2.48828 37.5117C2.4362 37.668 2.3776 37.9609 2.3125 38.3906H1.43359C1.55078 37.8307 1.60938 37.2513 1.60938 36.6523C1.60938 36.3659 1.55078 35.6758 1.43359 34.582H2.3125C2.46875 35.3633 2.6901 35.9427 2.97656 36.3203C3.4974 37.0104 4.29818 37.3555 5.37891 37.3555C6.45964 37.3555 7.24089 37.1276 7.72266 36.6719C8.21745 36.2161 8.46484 35.6888 8.46484 35.0898C8.46484 34.7643 8.39974 34.4844 8.26953 34.25C8.13932 34.0026 7.98307 33.8138 7.80078 33.6836C7.63151 33.5404 7.40365 33.4232 7.11719 33.332C6.84375 33.2409 6.61589 33.1823 6.43359 33.1562C6.2513 33.1302 6.02344 33.1042 5.75 33.0781C5.30729 33.0391 4.94922 33 4.67578 32.9609C4.41536 32.9219 4.05078 32.8307 3.58203 32.6875C3.1263 32.5443 2.76172 32.375 2.48828 32.1797C2.21484 31.9844 1.96745 31.7044 1.74609 31.3398C1.53776 30.9622 1.43359 30.526 1.43359 30.0312C1.43359 29.1198 1.80469 28.332 2.54688 27.668C3.30208 27.0039 4.22656 26.6719 5.32031 26.6719C6.25781 26.6719 7.0651 26.9388 7.74219 27.4727C7.98958 27.6549 8.13932 27.7461 8.19141 27.7461C8.26953 27.7461 8.32161 27.7135 8.34766 27.6484C8.3737 27.5833 8.41927 27.3815 8.48438 27.043C8.51042 26.9388 8.52344 26.8542 8.52344 26.7891ZM24.7258 27.0039H28.925L33.0461 37.082H34.0422V38H30.0383V37.082H32.0305L30.9172 34.3672H25.8195L24.7258 37.082H26.718V38H22.7141V37.082H23.7492L27.5187 27.9219H24.7258V27.0039ZM30.5852 33.5078L28.3781 28.1562L26.1711 33.5078H30.5852ZM46.0844 27.0039H49.4242L54.5609 37.1797H54.9125V27.9219H52.725V27.0039H57.0805V27.9219H55.8109V38.2539H54.0727L48.8383 27.9219H48.5062V37.082H50.7133V38H46.0844V37.082H47.6078V27.9219H46.0844V27.0039ZM69.2203 27.0039H74.1031C75.0797 27.0039 75.8674 27.0951 76.4664 27.2773C77.0654 27.4596 77.6122 27.8568 78.107 28.4688C78.9143 29.4714 79.318 30.7474 79.318 32.2969C79.318 34.3151 78.7776 35.8385 77.6969 36.8672C76.9026 37.6224 75.6786 38 74.025 38H69.2203V37.082H70.7633V27.9219H69.2203V27.0039ZM74.1227 27.9219H71.7398V37.082H74.025C75.3531 37.082 76.3297 36.776 76.9547 36.1641C77.8271 35.2917 78.2633 34.0221 78.2633 32.3555C78.2633 31.0924 77.9573 30.0378 77.3453 29.1914C76.9677 28.6576 76.5445 28.3125 76.0758 28.1562C75.607 28 74.956 27.9219 74.1227 27.9219ZM116.195 27.0039H121.527C122.79 27.0039 123.728 27.2773 124.34 27.8242C124.952 28.3711 125.258 29.0417 125.258 29.8359C125.258 30.9167 124.743 31.724 123.715 32.2578C125.199 32.7005 125.941 33.612 125.941 34.9922C125.941 35.526 125.811 36.0143 125.551 36.457C125.303 36.8997 124.971 37.2318 124.555 37.4531C124.138 37.6745 123.721 37.8242 123.305 37.9023C122.888 37.9674 122.237 38 121.352 38H116.195V37.082H117.816V27.9219H116.195V27.0039ZM121.488 27.9219H118.793V31.8281H121.391C121.99 31.8281 122.497 31.7565 122.914 31.6133C123.331 31.457 123.624 31.2617 123.793 31.0273C123.962 30.793 124.079 30.5781 124.145 30.3828C124.21 30.1875 124.242 29.9922 124.242 29.7969C124.242 29.3672 124.125 29.0091 123.891 28.7227C123.669 28.4362 123.37 28.2474 122.992 28.1562C122.615 28.0521 122.322 27.987 122.113 27.9609C121.918 27.9349 121.71 27.9219 121.488 27.9219ZM121.234 32.7461H118.793V37.082H121.312C121.638 37.082 121.892 37.082 122.074 37.082C122.257 37.069 122.51 37.043 122.836 37.0039C123.174 36.9648 123.441 36.9062 123.637 36.8281C123.845 36.737 124.06 36.6198 124.281 36.4766C124.503 36.3203 124.665 36.1185 124.77 35.8711C124.874 35.6237 124.926 35.3307 124.926 34.9922C124.926 34.224 124.594 33.6576 123.93 33.293C123.266 32.9284 122.367 32.7461 121.234 32.7461ZM139.175 32.5117C139.175 30.8581 139.637 29.4714 140.562 28.3516C141.486 27.2318 142.697 26.6719 144.195 26.6719C145.705 26.6719 146.916 27.2383 147.827 28.3711C148.752 29.4909 149.214 30.8711 149.214 32.5117C149.214 34.1393 148.752 35.5195 147.827 36.6523C146.916 37.7721 145.705 38.332 144.195 38.332C142.697 38.332 141.486 37.7721 140.562 36.6523C139.637 35.5326 139.175 34.1523 139.175 32.5117ZM140.23 32.4922C140.23 33.7682 140.581 34.901 141.284 35.8906C142.001 36.8672 142.971 37.3555 144.195 37.3555C145.418 37.3555 146.382 36.8737 147.085 35.9102C147.801 34.9336 148.159 33.7943 148.159 32.4922C148.159 31.1771 147.801 30.0443 147.085 29.0938C146.369 28.1302 145.405 27.6484 144.195 27.6484C142.945 27.6484 141.968 28.1432 141.265 29.1328C140.575 30.1094 140.23 31.2292 140.23 32.4922ZM162.37 27.0039H166.159V27.9219H164.557L167.233 31.4961L169.967 27.9219H168.483V27.0039H172.057V27.9219H171.061L167.78 32.2188L171.413 37.082H172.428V38H168.483V37.082H170.241L167.233 32.9414L164.088 37.082H166.159V38H161.998V37.082H162.995L166.686 32.2188L163.405 27.9219H162.37V27.0039Z" fill="white"/>
<rect x="92.7255" y="27.2129" width="11.0043" height="9.03674" stroke="white"/>
<rect x="94.2468" y="28.7554" width="7.97269" height="5.96338" fill="white"/>
</svg>
