<svg width="68" height="80" viewBox="0 0 68 80" fill="none" xmlns="http://www.w3.org/2000/svg">
<path d="M67.2601 42C67.2601 59.9388 52.3856 74.5 34.0131 74.5C15.6407 74.5 0.766144 59.9388 0.766144 42C0.766144 24.0612 15.6407 9.5 34.0131 9.5C52.3856 9.5 67.2601 24.0612 67.2601 42Z" fill="#FFE6A5" stroke="#1C1F35"/>
<path d="M50.6463 13.5C50.6463 20.6455 44.3971 26.5 36.6091 26.5C28.8211 26.5 22.572 20.6455 22.572 13.5C22.572 6.35451 28.8211 0.5 36.6091 0.5C44.3971 0.5 50.6463 6.35451 50.6463 13.5Z" fill="#FFE6A5" stroke="#1C1F35"/>
<path d="M63.1067 66.5C63.1067 73.6455 56.8575 79.5 49.0695 79.5C41.2815 79.5 35.0324 73.6455 35.0324 66.5C35.0324 59.3545 41.2815 53.5 49.0695 53.5C56.8575 53.5 63.1067 59.3545 63.1067 66.5Z" fill="#FFE6A5" stroke="#1C1F35"/>
<path d="M36.6362 20.9304C40.7752 20.9304 44.1305 17.6991 44.1305 13.713C44.1305 9.72694 40.7752 6.49561 36.6362 6.49561C32.4972 6.49561 29.1419 9.72694 29.1419 13.713C29.1419 17.6991 32.4972 20.9304 36.6362 20.9304Z" stroke="#1C1F35" stroke-linecap="round" stroke-linejoin="round"/>
<path d="M29.7184 11.4922H43.554" stroke="#1C1F35" stroke-linecap="round" stroke-linejoin="round"/>
<path d="M29.7184 15.9336H43.554" stroke="#1C1F35" stroke-linecap="round" stroke-linejoin="round"/>
<path d="M36.6362 20.3752C38.2281 20.3752 39.5187 17.3924 39.5187 13.713C39.5187 10.0336 38.2281 7.05078 36.6362 7.05078C35.0443 7.05078 33.7538 10.0336 33.7538 13.713C33.7538 17.3924 35.0443 20.3752 36.6362 20.3752Z" stroke="#1C1F35" stroke-linecap="round" stroke-linejoin="round"/>
<path d="M45.968 47.3867L57.8223 40.4743" stroke="#1C1F35" stroke-linecap="round" stroke-linejoin="round"/>
<path d="M44.0283 48.3809L38.6655 51.3627" stroke="#1C1F35" stroke-linecap="round" stroke-linejoin="round"/>
<path d="M10.1518 46.9932L18.1638 54.2267C19.2321 55.1923 20.5951 55.7997 22.0501 55.9584C23.5052 56.1172 24.9745 55.8188 26.2395 55.1078L58.4149 37.0752L54.462 32.4032C53.4338 31.1923 51.9903 30.3759 50.3923 30.1015C48.7943 29.8272 47.1473 30.113 45.7488 30.9073L36.3129 36.2556L23.5618 32.1573L20.0552 33.6122C19.7929 33.7206 19.5631 33.8909 19.387 34.1075C19.2109 34.3241 19.0941 34.5799 19.0476 34.8514C19.001 35.1229 19.026 35.4014 19.1204 35.6611C19.2148 35.9208 19.3755 36.1535 19.5877 36.3375L26.112 41.9932L20.1615 45.2719L14.211 42.8129L10.6406 44.2883C10.3809 44.3959 10.1531 44.5642 9.97777 44.7781C9.80249 44.9919 9.68527 45.2446 9.63675 45.5131C9.58822 45.7817 9.60991 46.0576 9.69985 46.3161C9.78979 46.5745 9.94514 46.8072 10.1518 46.9932V46.9932Z" stroke="#1C1F35" stroke-linecap="round" stroke-linejoin="round"/>
<path d="M23.8874 52.6577L35.7418 45.7453" stroke="#1C1F35" stroke-linecap="round" stroke-linejoin="round"/>
<path d="M55.8325 70.3391V63.6787C55.8319 63.5825 55.805 63.4881 55.7544 63.4051C55.7039 63.3221 55.6314 63.2533 55.5444 63.2058L49.3616 59.8621C49.2783 59.8158 49.1838 59.7915 49.0876 59.7915C48.9914 59.7915 48.8969 59.8158 48.8136 59.8621L42.6307 63.2058C42.5437 63.2533 42.4713 63.3221 42.4207 63.4051C42.3701 63.4881 42.3432 63.5825 42.3427 63.6787V70.3391C42.3432 70.4353 42.3701 70.5297 42.4207 70.6127C42.4713 70.6957 42.5437 70.7645 42.6307 70.812L48.8136 74.1557C48.8969 74.2019 48.9914 74.2263 49.0876 74.2263C49.1838 74.2263 49.2783 74.2019 49.3616 74.1557L55.5444 70.812C55.6314 70.7645 55.7039 70.6957 55.7544 70.6127C55.805 70.5297 55.8319 70.4353 55.8325 70.3391V70.3391Z" stroke="#1C1F35" stroke-linecap="round" stroke-linejoin="round"/>
<path d="M55.8325 63.4004L49.1515 67.0091L42.3427 63.4004" stroke="#1C1F35" stroke-linecap="round" stroke-linejoin="round"/>
<path d="M49.0876 67.0088V74.2262" stroke="#1C1F35" stroke-linecap="round" stroke-linejoin="round"/>
</svg>
