<svg width="33" height="32" viewBox="0 0 33 32" fill="none" xmlns="http://www.w3.org/2000/svg">
<path d="M16.5568 8V5" stroke="#1C1F35" stroke-width="2" stroke-linecap="round" stroke-linejoin="round"/>
<path d="M26.5568 19.487C25.0359 24.8216 17.9943 26.6835 16.7443 26.9764C16.6212 27.0079 16.4923 27.0079 16.3693 26.9764C15.1193 26.6835 8.0776 24.8216 6.55676 19.487V15.9096C6.55675 15.7334 6.61212 15.5617 6.715 15.4189C6.81787 15.2762 6.96299 15.1697 7.12968 15.1146L16.2963 12.0393C16.466 11.9869 16.6475 11.9869 16.8172 12.0393L25.9838 15.1146C26.1505 15.1697 26.2957 15.2762 26.3985 15.4189C26.5014 15.5617 26.5568 15.7334 26.5568 15.9096V19.487Z" stroke="#1C1F35" stroke-width="2" stroke-linecap="round" stroke-linejoin="round"/>
<path d="M16.5568 20V12" stroke="#1C1F35" stroke-width="2" stroke-linecap="round" stroke-linejoin="round"/>
<path d="M9.55676 14V8.75C9.55676 8.55109 9.64456 8.36032 9.80084 8.21967C9.95712 8.07902 10.1691 8 10.3901 8H23.7234C23.9444 8 24.1564 8.07902 24.3127 8.21967C24.469 8.36032 24.5568 8.55109 24.5568 8.75V14" stroke="#1C1F35" stroke-width="2" stroke-linecap="round" stroke-linejoin="round"/>
</svg>
