<svg width="63" height="63" viewBox="0 0 63 63" fill="none" xmlns="http://www.w3.org/2000/svg">
<path d="M42.8672 29.3945V19.4302H48.464C51.2985 19.4302 53.8533 21.1396 54.9346 23.7598L56.975 28.7037C57.1108 29.0329 56.8689 29.3945 56.5128 29.3945H42.8672Z" fill="#FFD550" stroke="#1C1F35" stroke-width="2"/>
<path d="M5.22412 36.0374H42.867" stroke="#1C1F35" stroke-width="2" stroke-linecap="round" stroke-linejoin="round"/>
<path d="M46.1885 53.7519C49.8573 53.7519 52.8314 50.7778 52.8314 47.109C52.8314 43.4403 49.8573 40.4662 46.1885 40.4662C42.5198 40.4662 39.5457 43.4403 39.5457 47.109C39.5457 50.7778 42.5198 53.7519 46.1885 53.7519Z" stroke="#1C1F35" stroke-width="2" stroke-linecap="round" stroke-linejoin="round"/>
<path d="M17.4029 53.7519C21.0716 53.7519 24.0457 50.7778 24.0457 47.109C24.0457 43.4403 21.0716 40.4662 17.4029 40.4662C13.7341 40.4662 10.76 43.4403 10.76 47.109C10.76 50.7778 13.7341 53.7519 17.4029 53.7519Z" fill="#FFD550" stroke="#1C1F35" stroke-width="2" stroke-linecap="round" stroke-linejoin="round"/>
<path d="M39.5457 46.0013H24.0457" stroke="#1C1F35" stroke-width="2" stroke-linecap="round" stroke-linejoin="round"/>
<path d="M10.7045 46.0013H7.10626C6.60709 46.0013 6.12836 45.7972 5.77539 45.4339C5.42242 45.0705 5.22412 44.5777 5.22412 44.0638V16.9388C5.22412 16.425 5.42242 15.9322 5.77539 15.5688C6.12836 15.2055 6.60709 15.0013 7.10626 15.0013H42.867V40.9638" stroke="#1C1F35" stroke-width="2" stroke-linecap="round" stroke-linejoin="round"/>
<path d="M42.8672 29.3949H58.3672V44.1568C58.3672 44.6462 58.1631 45.1155 57.7997 45.4616C57.4364 45.8076 56.9435 46.002 56.4297 46.002H52.6931" stroke="#1C1F35" stroke-width="2" stroke-linecap="round" stroke-linejoin="round"/>
<path d="M9.65283 28.7034L9.65283 19.4302" stroke="#1C1F35" stroke-width="2" stroke-linecap="round" stroke-linejoin="round"/>
<path d="M29.5813 31.6088L38.8545 31.6088" stroke="#1C1F35" stroke-width="2" stroke-linecap="round" stroke-linejoin="round"/>
<path d="M29.5814 50.3236L32.9028 50.3236" stroke="#1C1F35" stroke-width="2" stroke-linecap="round" stroke-linejoin="round"/>
</svg>
